<svg id="Ebene_1" data-name="Ebene 1" xmlns="http://www.w3.org/2000/svg" width="449.22" height="438.27" viewBox="0 0 449.22 438.27"><defs><style>.cls-1{fill:#fff;fill-rule:evenodd;}</style></defs><path class="cls-1" d="M265.68,353c-.1,1.42.17,3.13,0,3.6-.11,1.08-.31,1-.72,1.68-.35.15-2.62,1.18-3.36.72-1.08.19-.34.5-1.44,1v.24h.24v.48c-.19-.25-.09-.06-.24-.48-1.14.51-2.19,4.75-1.2,6,.86,2.4,8,3.37,9.6,2.4,1.7.91,1.39,2.71,4.56,3.12.14.91.36,1,.48,1.92a31.53,31.53,0,0,1,3.12.48h.48c-1-3.85-3.38-6.91-4.8-10.32-1.28-3.08-1.38-6.68-3.12-9.36a4.46,4.46,0,0,0-1.68-1.2A18.11,18.11,0,0,0,265.68,353Z" transform="translate(-132.24 -178.05)"/><path class="cls-1" d="M285.6,452.16c-1-.26-1-2.24-1-3.6-1.31.37-4.65-.21-6.48-1-1-.39-.93-1-1.92-1l.24-.72c-.6-.16-.13-.07-.72,0a2.11,2.11,0,0,0-.24-1.2,8,8,0,0,0-1.44-1.2h-.24v.24a43.15,43.15,0,0,0-9.36-.24c-1.76.27-2.06-.85-3.12.24-.25-.41,0,0,0-.48-1.67.12-3.6-1.23-5.76-1.44-.52-1-2-4-3.6-3.12-.23-.39,0,0,0-.72a2.22,2.22,0,0,1-1.44,0,3.58,3.58,0,0,1-.48,1c-1,.52.95,2.72.72,3.6s.85,2,1.2,2.88c1.11,2.8.61,5,1.92,7.68,1,1.94,2.17,3.81,2.4,5.76h.48a3.41,3.41,0,0,0-.24-1h.24v-.24c.49.1.46.06.72.24.82,1.13.38,2.7.72,3.36,1,1.65,4,.8,6.24,1.2s7.91-1,10.56-1.68c.34-.09,1.68-.72,1.92-.72,3.54,0,7.12-.1,9.36-.24,1.82-.11,4.27.89,5.76,0,.68-1.36-3.12-5.85-3.84-7C287.48,452.71,286.11,452.69,285.6,452.16Z" transform="translate(-132.24 -178.05)"/><path class="cls-1" d="M570.24,180c-1.78.57-3.21,1.93-4.8,2.64-.52.23-2-.47-2.4-.24s-.5,1.07-1,1.2c-1.56.45-4.63-.71-6,0a4.1,4.1,0,0,0-2.88,1c0,2-.11,1.75,1,2.88-.43.49-.16,3.51-.24,4.8a9.28,9.28,0,0,0-2.16,2.16v.24l-.48-.24v.24c-1.85.63-2,2.88-2.88,4.56-.47-.6-1.42,1.66-1.92,1.92l-.72-.24s-3.33,3.26-3.36,3.36v.24c-.86-.25-1.1.26-1.92.48-.57.15-1.5-.3-1.68-.24a18.23,18.23,0,0,0-4.32,2.4,27.9,27.9,0,0,0-3.84.48c-1.49.72-2.89,2.71-4.56,3.84l-1.44.24c-1.15.64-2.61,1.87-3.84,2.4-1.42.61-2.83.49-4.08,1.44h-.24c.53-2.14,4.9-3,6.72-4.08,2.74-1.68,4.13-3.72,7-5.52,1.31.68,2.56-.69,3.6-.48v.24H534c2.31-1.1,4.5-3.86,6.72-3.84,0,0,.94,0,.48-.24a16.36,16.36,0,0,1,3.36-3.36c.33.18.65.38,1,0s-.09-1.2.24-1.68c.71-1,4.4-5.41,5.28-5.76-.1-.49-.06-.46-.24-.72,0-1.41-.21-1.31-.48-1.68-.67-1.3,0-2.19-.72-3.6.33-1.52,2.65-2.08,2.64-3.6,1.44-.11,1.08-.45,1.92,0v-.48h.48c-1.36-.89-4.75-.61-7-1a22.19,22.19,0,0,0-7-.24c-.59.08-2.39-.31-3.6,0-4.38,1.12-8.81,1.66-13.2.48-2-.53-3.47.06-4.56-.72-3,.23-2.44,5.8-3.6,7.92-1.52,2.79-1.94,6.55-3.6,11-.65,1.75-1.84,3.52-2.64,5.52-.21.52.21.67.24,1-1.25,1.9-2,4.58-2.64,6-.76,1.67-.82,5.51-2.16,6.72a2.66,2.66,0,0,0,.72.48c.26.4,3.59.92,4.56.72.79,1.29,2,1.79,2.64,3.36l-.48-.24c.46,1.19,1.29,4.05,2.64,5l1.2.24c.71.56,1.8,2.72,2.4,2.64a2.56,2.56,0,0,1-.24,1.68c.46.22.18.1.72,0v1c2-.07,3,.3,4.08-.48v.24h.24c.15.41,0,.23.24.48.47-1.29,3.28-2.67,3.6-2.64-.15-.41,0-.23-.24-.48,1.67-1.31,3.45-.67,5-1,.83,1.13,2.09,1.71,3.12,2.64a5.77,5.77,0,0,0,.72,2.4c.43.53,1.53.63,1.92,1.2,1.59,2.37,2.35,3.33,4.32,4.56-.25.19-.06.09-.48.24-1,.28-1.54-1.1-3.12-1.44-.59-2.26-6.14-4.78-6.72-7.2-.77.13-.32.16-1-.24-.59.56-1.69,1.26-2.4,1l-.24,1.2c-1.47,2.11-5.67,2.48-7.68,2.16-1-.16-2.32.35-2.88,0-.86-.31-2.09-3.93-2.16-5.28l-2.16-.48c-.78-1.45-1.93-2.27-2.16-4.32h-.72a5.78,5.78,0,0,0-.48-2.4h-.24v-.24c.24-.29.27.2.48-.24-1.95-.83-4-.29-6.24-.72-1.3,1.85-1.37,3.75-2.64,6.48l.24,1a21.21,21.21,0,0,0-1.2,1.92v1.44c-.33.8-1,1.71-1.44,2.64s0,1.75-.24,2.4l-.72.48c-.61,1.16-.43,2.2-1,3.36-.16.36-.81.6-1,1a19.43,19.43,0,0,1-.72,3.12,241.37,241.37,0,0,0-11.52,23.52c-.38.87-.31,2.87-.48,3.6-1.11,4.84-1.92,6.54-2.88,10.56l.24,1A17.94,17.94,0,0,1,479,288c-.07.1.25.95,0,1.44s-1.14,1.55-1.44,2.16.4.72,0,1.44c-.17.3-.81.58-1,1a12,12,0,0,1-.72,3.12c-.23.4-1,1-1.2,1.44-.09.21.09,1.24,0,1.44h-.48c-.59.89-.36,1.95-1,2.88-.2.31-.89.57-1.2,1.2a79.43,79.43,0,0,0-4.32,10.32c-.75,2.16,0,3.68-1,6-2.64,6.61-5.05,16.24-9.36,22.08-1.62,2.19-1.83,6-4.08,7.92v.72c.41.15.23.05.48.24,1.42,0,1.41-.23,1.44.72.65-.16.65-.21,1.2.24.31-.13.17-.09.24-.24,0,0,5-3.67,5.76-4.08.32-.18.74.19,1.2.24,1.1.13,2.68-.52,3.36-.24s.43.64,1.44,1c1.45.46,1.77-.45,2.88.24a3.08,3.08,0,0,0,2.16-1.2c.47-.27.23,0,.24-.48.31-1.12,1.23-.58,1.68-1.2v-1c.61-.94,2.87-1.34,3.6-1.44a5.65,5.65,0,0,1,2.88.24v.24h.24c1-.91,2.54-.76,3.12-1.2.11-.08-.22-.75.24-.48v.48c.72-.45,2.27-1.45,2.88-1.2.18-.26.15-.22.24-.72,1.73-.19,1.95-1.28,2.4-1.92.2.56,2.26-1.1,2.88-1.44-.51-.46,2-1.45,2.4-2.4.22-.48-.34-.76-.24-1,.25-.48.92-.2,1-.24.36-.36.54-1.17,1-1.44,1.92-1.23,4.44-3.51,4.56-5l.72.24c1.91-4.31,3.84-8.75,7.2-11.76v-.24h.24c-.28.92-.78.84-1.2,1.44s0,1.37-.24,1.68-.79.44-1,.72l-.72,2.16h-.48l-.24,1.92c-.25.59-.95,1.33-1.2,1.92.06.24.46.5.24,1s-1.12.82-1.44,1.2c-1,1.26-1.6,2.8-2.64,4.08s-2.81,2-3.6,3.36c-.69,1.18-1.07,3.39-1.92,4.32-.48.52-1.35.52-1.92,1s-1.15,1.68-1.92,2.16-2.39,1-2.64,1.2l-.24.72-1-.24c-.11.07-.37.9-.48,1l-1.2-.24c-1.39.43-2.49,1.08-3.84,1.44-1.66.45-3.45-.63-4.56,0-1.4.66-1.77,2.41-2.88,3.36-3.09,2.65-6.64,1.26-10.32,0l-2.88,1c-.55.18-1.12,1.37-1.92,1.92-1.47,1-2.47,1.15-3.6,2.16a12,12,0,0,0-3.84-.24,3.1,3.1,0,0,1-.24-1c-.77.36-.33.5-1,0-.84.9-1.13,2.89-1.44,3.6-1.27,2.93-1.58,5.19-3.12,8.16a10.81,10.81,0,0,1-1,3.6c-1.09,2.33-2.19,5.58-3.36,8.16-.62,1.37,0,1.72-1.2,3.12a1.18,1.18,0,0,1,0,1.2c-4.13,6.26-9.51,17.07-10.56,23.76-.39,2.51-3.28,6-2.88,8.16h-.72v1.44a2.71,2.71,0,0,0-1.68.48c-.36-1.06-.1-2.34-.48-3.6s-1-1.86-1.2-2.88c-.18-.82.33-1.19.24-1.68-.18-1-.52-3.5-.72-4.08-1-2.83-3.48-5.29-4.8-7.92-.71-1.42-.73-2.62-1.44-4.08-1.67-3.43-3.83-7.4-5.28-11a17.52,17.52,0,0,0-.72-2.88c-.83-1.63-2.39-3.5-3.12-5.28-1.33-3.24-2.69-6.28-3.84-9.36-1-2.75-.92-5.28-1.92-7.92-.38-1-1.32-2.1-1.68-3.12-1.07-3-.8-6.22-1.92-9.12-1.05-2.72-2.68-5.43-3.6-8.16-1.12-3.33-.77-6.79-2.16-9.84-.95-2.08-2.93-3.52-3.6-6-1-3.65,2.45-9.67,3.36-11.76.63-1.43.6-3.41,1.44-5.28,1.07-2.38,4.43-9.27,4.08-11.52-.27-1.74,2.1-5.15,1.68-6.72-.08-.3.86-1.23,1-1.44a18.06,18.06,0,0,1,.48-2.64c.65-1.45,2-3.28,2.4-4.8a1.19,1.19,0,0,0-.48-1.44v-.48l1.2-.24c-.08-1.2-.33-1.49.24-2.16,0,0-.05-.94-.24-.48-.34,0,.1.29-.24.24.19-.72,0-1.28.72-1.68-.27-.8-.66-.95-1-1.68-1.6.61-4.38,1.58-5,3.12-.9-.27-4.23.23-4.56,0-.6-.43-1-1.54-1.68-1.92-3.78-2-7.22-2.07-11-1.92a11.43,11.43,0,0,0-5.76,2.4l-2.4-.24c-.88.36-2.4,1.85-3.6,1.2-.41-.15-.23,0-.48-.24,2-.41,2.44-1.41,3.84-1.92,1.08-.39,3.79-.73,4.08-1s.23-.77.48-1c.24.13,7.14-1,8.16-.72V265c.49-.34,4.77-.4,5-.24,1.38.84,2.36,1.56,4.32,2.88,2,.71,3.14-1.43,5.28-2.16.23.06.11-.07.24.24.58-.62.77-.36,1-1.44,1.7,1,3.16-1.27,5.76,1.2,1.53-1.6,1.68-4.43,2.88-7s2.44-5.51,3.6-8.16c1-2.31.78-4.8,1.68-7.2,4-10.69,8.61-18.89,13-28.32.6-1.29.43-2.93.72-3.84,1.24-3.83,2-7.83,3.84-11.28.39-.7.4-2.65,1.2-3.6-.1-1.49-.58-1.34-1-2.4-.85.24-1.1-.13-1.92-.24-.34.17-1,.71-1.2.48-.57.29-.64.63-1.2,1,.22.52.21.35.48.72a3.12,3.12,0,0,0-1.68,2.16c-1.14.25-.67.22-1.44,0-.6.43-.74.82-1.44,1-.5.1-1.53-.58-2.16-.48-1.27.19-2.24,1.68-3.84,1.44-1.38-.21-1.56-1.5-2.4-1.92-.48-.24-3.49.31-3.84.24-1.26-.27-8.66-2.48-10.32-2.16v-.24c-.26-.22,0,0-.24-.24H403c.47-.37.36.48.72.24l.24-.72c.63-.23.43.69.72.48,1.71-1.27,7.19,1.23,9.12,1.2a15.64,15.64,0,0,0,3.6-.72,6.72,6.72,0,0,1,2.4,1.44c1.71-.28,4-2.17,6-1,.68-1.52,2.31-3.48,3.36-5.28a10.52,10.52,0,0,1,7.2,1.44c2.43-4.75,5.17-8.39,6.48-13.92h-.24c-1.12-.58-3.91.08-5.76.48-.21.05-1.09-.34-1.68-.24-1.83.29-3.48,0-5.28.24a47.2,47.2,0,0,1-5.76.72,5.08,5.08,0,0,0-1.92.72c-.88.41-4.34-.39-5.52-.24a28.57,28.57,0,0,1-6.48-.48c-2.46-.3-4.87.86-7.44.24-2-.48-4.28-.71-6-1-2.55-.37-6.75.9-9.6-.24-1,1.76-.67,3.85-1.44,6-1.29,3.61-2.81,10.1-4.56,13.44a6.45,6.45,0,0,1-1.2,4.56v1a4.78,4.78,0,0,0,1-.48,3.71,3.71,0,0,1,3.36,3.6c1.84.25,5.2,1.35,7.2,1.2a1.31,1.31,0,0,0,.72,1v1c3.27.08,5.08,1,7.92,1.2.16.85.16.81.72,1.2.34.66.63.3,1.68.24v.24c-.41.15-.23.05-.48.24-1.62,0-1.54-.35-2.4-1-.36-.19-6.38-.36-7.2.24-.76-.41-1.43-1.87-1.92-2.16l-.72.24c-1.29-.77-3.55-1.95-4.8-.72-1.51-.26-2.26-1.51-2.88-2.64-.44-.3,0-.12.24-.48l-.48-.24c-.92-.66-3.1.86-3.84,1.92-1.4,2-1.5,5.81-2.88,9.36a64.65,64.65,0,0,1-2.88,6.24l-.24,1.92h-.48c-.17.27-1.15,2.48-1.2,2.64-.19.54.34,1,0,1.92a45.39,45.39,0,0,0-1.2,5.28,19.9,19.9,0,0,1-1.2,2.4l.24.72a18.43,18.43,0,0,0-1.68,3.36l.24.72c-.18.33-1,.87-1.2,1.2-.76,1.22-.79,2.53-1.44,3.84a41.12,41.12,0,0,1-2.64,3.84H361c-.79-1.65-2-3.29-2.64-4.8-.85-2-.71-4.05-1.44-6.24-1.52-4.56-2.69-8.65-4.08-13.2-1.24-4.06-1.86-8.31-3.12-11.28-.91-2.16-.5-4.67-1.68-6.48-.4-.63-.88.14-1.44-.72-.18.26-.15.22-.24.72-.76-.2-.38-.14-.72-.72-.67.8-2.77,1.11-3.36,0-.39.25-.6,1.13-.48,1.2v.24l-.48-.24c-.2,3.83-3.48,5.66-5.52,7l-.24-.72c-.22.46-.1.18,0,.72-3.15-.53-7.29-.3-8.4,3.12-1,0-1.69-.56-2.16.48-.65-.4-.24,0-.24-.72a8.57,8.57,0,0,1-2.64.48l.24.72c-1.33-.36-2,1.53-3.12,1-.59.22-.33.52-1.2,1v.24h-.24a2.73,2.73,0,0,1,.48-1.2c.44-.56.68-.67,1.68-.72.23-1,2.72-1.62,2.4-2.88.95-.73,2-.18,3.36-.72.72-.3.68-1.23,1.2-1.68a16.43,16.43,0,0,1,3.6-1.68c1.74-.3,4.13.65,5.52-.24s.94-2,1.92-3.12c.22-.25.72,0,1-.24l-.24-.72c.46-1.25.76-2.61,2.16-3.36.12-.07,5.47-.11,6,.24h.48c-.72-1.55-1.09-3.6-1.68-4.8-1.55-3.12-3.53-6.79-4.8-10.08-1.12-2.9-1.11-6.86-1.68-9.6-.21-1-1.17-1.73-1.44-2.88-1,.33-1.75,1-2.4,1.2-.94.25-4-.57-5-.48-.27,0-.38.36-.72.48-1.86.63-6.15.21-7.92,0-3-.35-6.1.45-8.4.24a12.55,12.55,0,0,0-.48,1.68,1.47,1.47,0,0,1-.48-.48H312a4.43,4.43,0,0,0,.24,2.16,13.51,13.51,0,0,0,1.68,1.92l.72-.24c2,2,2,5.06,1.68,7.68h-1s.05.94.24.48c.34,0-.1-.29.24-.24-1.47,2-1.38,5.41-1.68,8.4a2.26,2.26,0,0,0-1,.72H313l.24-.48a1.79,1.79,0,0,0-1.2,1h-.24c-.06-.89.51-3.27,1.2-3.6v-.72a1.47,1.47,0,0,0-.48.48h-.24c.89-1.75-.25-3.81.24-5.52.2-.69.75-1.1,1-1.92h.72c0-1.93-.34-2.24-.24-3.6a3.1,3.1,0,0,0-1-.24c-.58-2.48-5.68-2.43-3.12-5.76.15-.19-.26-1.19.72-1.92-1.27-.81-4.08-.29-5.28-.72-1.73-.61-4.89-2.24-7.44-2.16-3.08.09-7.67.8-10.56,1-1.75.1-4.36-.64-5.52,0h-1.68c2.56,6,3.9,12.6,6.48,18.72,2,4.72,5.6,8.62,8.16,12.72.78,1.25,1.22,2.85,1.92,4.08-.32.85.89,2.18.72,3.12-.3,1.68,1.33,8.23,2.16,10.8-.39,1.78.83,4.08,1.44,5.76-.39,1.67.86,4.61,1.44,6.72.67,2.42.29,4.71,1.2,7,1.74,4.31,5.53,7.37,7.44,11.52.95,2.06.91,4.06,1.68,6.24,1.93,5.52,2.91,11.32,4.56,16.8,1.34,4.45,1.47,6.87,3.12,10.8.6,1.42.67,3.1,1.68,4.08v.48h.48a2.66,2.66,0,0,0-.48-.72c.26-.18.22-.15.72-.24l.24-1.2c1.54-.25,2.82-1.21,4.08-.48.67.38.23.77,1.44,1,.1.49.06.46.24.72.23-.06.11.07.24-.24,2,.91,3.5,2.13,5.52,2.64.64-1,2.47-4.34,3.12-4.8,1.5-1.07,3.48-1.68,4.56-3.12,2.29-3.05-1.88-8,3.6-11.28v-.24h.24c-.14.83-1.67,2.4-2.4,2.88,0,6.26,2.18,9.73-2.88,12.72.06.23-.07.11.24.24-.29.24-.88.22-1.2.48-1.2,1-1.5,2.5-2.4,3.84-.24.36-.69-.05-.72,0v1c-.43.75-1.5.85-1.92,1.68-1.41-.94-2.65-.32-3.84-1-1.73-.93-3.64-2.79-5.52-3.36-.25-.19-.06-.09-.48-.24a3.89,3.89,0,0,1-1,1.2v1.2h1c.43,2.84,3.55,6.35,4.56,9.12l1.68,5c.81.83,1.71.63,2.16,1.92.46.64.46,3.64-.24,5.28-.09.21-.81.54-.72,1,.25,1.25-.82,4.23-1.44,6a26,26,0,0,1-.72,6,15.75,15.75,0,0,1-1.92,3.36,8.4,8.4,0,0,0-.48,2.16,29,29,0,0,1-2.64,4.56c.18.17.53.32.72.48.15-.36.3-.1,0-.48.22-.74,2.05-2.06,3.36-2.4.93-.24,1.64.28,2.16,0a4,4,0,0,1,3.12,3.12c.69,0,.35.17.72,0,.33.23,0,.35.72.72,1.45.91,3.9.54,6.48,1.2a48.1,48.1,0,0,0,9.84.72c.95,0,3.89-.81,4.8-.48,2.66,1,4.23,2.92,6.48,4.8,1.19,1,2.7,1.05,3.12,2.16-.06.23.07.11-.24.24,1.55,2,3,1.78,4.8,3.84H371a9.74,9.74,0,0,1-3.12-1.2c-1.11-.83-2.79-1.44-3.84-2.4l-.24-1-1.2-.24a35.82,35.82,0,0,1-4.32-3.84c-1-.06-2.61-.22-2.64-.24-1,.27-.32.57-1,1.44-.22.28-2.32-1-3.6-.72-.59.14-9,.12-10.08-1.44,0,0-.94.05-.48.24,0,.34.29-.1.24.24-1.13-.18-1-.23-1.68.24v-.24c.06-.23-.07-.11.24-.24,0,0-.05-.94-.24-.48-.34,0,.1.29-.24.24s-.13,0-.24.48c-2.28-.38-5.85-1.87-6.48-4.56a6.37,6.37,0,0,1-2.4-.24c-.47.57-.84.26-1.44.72A31.18,31.18,0,0,0,325.2,349a1.81,1.81,0,0,1-1.2-1.2h-.24c-.44,1.66-1.82,3.06-2.64,4.32-.29.45-1.84,4.49-2.16,5.52-1.32,4.26-1.55,8.85-3.36,12.24a4.26,4.26,0,0,1,.24,1.44c-.26.69-1.32,1.89-1.68,2.64-.66,1.38-.37,2.56-1,4.08a73.76,73.76,0,0,1-4.08,7.92c-2.21,4-2,7.25-4.56,10.32l.24.48a28.58,28.58,0,0,0-7,10.32,3.78,3.78,0,0,1-.24,2.4c-.41,1.09-2.3,4.94-2.16,5.28-.62,1.18-1.33.57-1.68,1.68h-.24v-.24c-1.18-.65,0-.86-.48-1.68-.16-.32-1.77-1.18-2.16-1.92-1.8-3.44-1.17-7.84-2.4-12-.86-2.92-2.91-5.5-4.08-8.16s-1.8-4.93-3.12-7.44c-1.2-2.29-3-5.1-3.12-8.4a26.36,26.36,0,0,0-6.24-1,19.45,19.45,0,0,1,0-2.16,8.34,8.34,0,0,1-2.64-1c-1.17-.27-1-.56-1-1.44-.28,0-7.38-.46-7.44-.48-.85-.29-1.85-1.56-2.64-1.92-1-.46-1.26-.07-1.92-.72-.81-.29.09-.36-1-.72s-3,1.63-4.08,2.4v2.88c-.23.79-1.23,1.57-1,2.16v.24l-.48-.24c.07.77.21.77,0,1.2-.47.89-.94.6-1.44,1,.24.19.15.29.48.72-.95.36-3.26,3.61-3.84,4.56h-.72c1.11-1.73,2.67-3.14,3.6-5,0-.33.06-.34-.48-.72,1.66-2,1.69-4.34,1.68-7.2,2.06-1.76,2-2.7,4.8-3.84a1.49,1.49,0,0,1,1,.24,2.57,2.57,0,0,0,1.44-.48c-.05-1.48.38-2.25-.24-3.12.59-.71.83-.51.72-1.44H257v.24c1.24-.67.83-1.63,1.68-2.64s3-.26,4.56-1.68c.16-.21.32-.75.48-1-.1-.86.13-.63-.48-.72a10,10,0,0,0-.24-2.88c.54-.32.57-.54,1-1,.35.36,2.77-.52,3.84.72h.48c-7-18.31-12.14-39-19.68-56.16-1.53-3.49-1.13-7.93-2.64-11-1.68-3.46-3.08-7.76-4.56-11.28-.89-2.11-1-4.76-2.16-7.2-2.23-4.56-4.6-9.24-6.72-13.68-1.73-3.62-2-7.6-3.36-11.52A134.39,134.39,0,0,0,223.68,228c-.74-1.56-.76-3.42-1.68-4.8v-.48c-2.45,1.36-10.31-.41-12-1-.18-1,.11-2.21-.48-3.12-1.57-1.06-4.27-.6-4.56-2.64-.41.15-.23.05-.48.24-2.57-1.37-.84-6.42-2.4-7.92v-.24l.48.24a2.87,2.87,0,0,0-1.92-1c-.17-1.05-.72-1.42-1-2.16-.16-.49.29-1.34.24-1.44h-.48c-.47-1,.28-1.13,0-2.16-.22-.84-.93-1.32-1.2-2.16.19-.25.09-.06.24-.48a4.78,4.78,0,0,1,2.16,2.4v1.2l.72.24c1.52,2.22.89,2.74,3.6,4.56a28.65,28.65,0,0,1-.24,4.08c0,4,4.65,4.61,6.72,5.52l.48,2.88c2.91.59,7.55.48,8.88,1.2H221c-.35-1.39-1-3.33-1.44-4.56-.91-2.8-.45-5.74-1.68-8.16-2.4-4.75-5.53-9.56-7.68-14.64-1.19-2.82-.84-5.32-1.92-7.92-.94-2.26-3.46-4-3.84-6.48a20.55,20.55,0,0,1-3.12-1,18.79,18.79,0,0,0-5,.48c-.26,0-1.27-.3-1.68-.24-5.73.89-9.83,2-14.88,1.2-1.67-.26-4,.71-5,1a2.68,2.68,0,0,1-1.2-.24c-.67.07-.21.37-.48.48-.68.28-2.66-.31-3.36-.24-.94.09-2.34.31-2.88,0h-.24a8.46,8.46,0,0,0-.24,2.4c2.39,1.1,5.29,2,7.44,4.56,1.05,1.3.12,4.38,1.2,6.72s3.39,3.53,5.76,4.56c0,1.5,1.24,5.58,1.92,6v.48h-.24v-.24c-1.51-.68-2.32-3.85-3.36-5-.26-.3-1-.19-1.44-.48-.5.2-.48.24-.48.24v.24a15.22,15.22,0,0,1-4.8-6.72c-.6-1.95.25-2.92-.72-4.32-.89-1.85-3.38-2.07-5-2.88-.67-.33-1.08-1.15-1.92-1.44v-1h-.72c.26-.8.4-2-.48-2.4.46-.22.18-.1.72,0-.22-.58-.26-.38-.48-1-4.65-.09-14.78-3.38-17.52-2.16H145c.95,1.56,2.68,3.13,3.36,4.8,1.6,3.92,1.17,7.73,2.88,11.28,2.58,5.36,4.83,10.26,7.2,15.36.92,2,.8,3.75,1.68,5.76,1.53,3.49,2.51,6.86,4.08,10.56l.24,2.16c1.64,3.78,3.66,8.85,5,12.24.74,1.82.81,4.69,2.4,6.24v.48c.78-1.22.28-3.22,1.68-3.84.17-.38.69-.19,1.44-1,0,0,.94,0,.48.24h-.24v.24c2.54-.75,8.82-.47,9.6,3.6.76-.25.71,0,1.92,0v.72c.44-.41,1.41-1.23,2.16-.24,0,0,.94-.05.48-.24h-.24v-.24a23.42,23.42,0,0,0,3.84.72,42.34,42.34,0,0,0,4.8,2.88c.2.09.47-.43,1-.24a26.49,26.49,0,0,1,3.36,1.92c2.14,1.5,3.38,4.44,5.52,6V258h-.24v.24c-1.25-.48-5.45-3.18-6-4.56h-1V253a23.5,23.5,0,0,1-3.12-1.2l-3.6-.48-.24-.72-1,.24c-.91-.42-1.33-1.14-2.4-1.44-2-.57-4.64,1.4-5.76-.72a1.47,1.47,0,0,0-.48.48c-.48-.53-.55-.44-.72-1h-.48l.24.24v.24a25.42,25.42,0,0,1-2.64-3.36,8.49,8.49,0,0,1-1.92.24s-.94-.05-.48-.24h.24V245a26.19,26.19,0,0,1-3.36.72,9.15,9.15,0,0,0,0,2.4c-.1,1.59-.78,1.41-1.44,1.44.42,3.41,2.54,6,3.84,9.12.74,1.75.92,3.7,1.92,5.28.36.57,1.14,1,1.44,1.68,1.34,3,1.25,4.52,2.64,7.68,1.59,3.61,3.6,7.38,5.52,10.8.93,1.65,1.15,3.43,2.16,5l-.24.48c1.63,3.09,7.78,12.41,7.44,15.6l5,.24c3.41,1.36,4,6.08,8.64,5,.23-.05.87.47,1.44.24v-.48c.35-.23,0,.78.72.48l.24-.72c.79-.29,1.63.36,2.4-.48.25.41,0,0,0,.48,1.82,0,3.53-1.4,5.28.24.92.47,1.07,1.86,1.68,2.64.89.57,2.27,0,3.36.72,1.31.87.27,2.57,2.64,3.12v.48a3.17,3.17,0,0,1-2.16-.48c-.86-.23-1.51-1.27-1.92-1.92-.93,0-2.33.13-2.88-.24a4.92,4.92,0,0,1-1.92-2.88c-2.34.3-9.36,1.82-10.8,1.2-2.33-.13-5.93-3.33-6.72-5a14.48,14.48,0,0,1-2.88-.24c-2.39.42-.71,3.66,0,5.28,1.65,3.79,3.12,8.44,4.8,12.48.6,1.44.14,2.45.48,3.36.5,1.35,1.11,2.51,1.68,4.08l.24,1.68c1.5,2.73,3.85,5.22,5,8.4s1,7.36,2.4,10.56c.88,2.08,3,4,3.84,6.24,1.24,3.13,1.91,6.06,3.36,9.12.49,1,1.45,2.19,1.92,3.36.77,1.92,1.13,4.51,2.16,7a46.67,46.67,0,0,0,3.36,5.52c2.11,3.46,3.57,7.58,5.28,11.28a18.37,18.37,0,0,1,.48,3.12c1,1.44,1.81,5.12,2.64,7.44l-.24.72c.89,2.3,2,6.05,3.36,8.88.6,1.27,1.83,2.52,2.4,3.84.95,2.19,1,4.4,2.16,6v.24c.18-.26.15-.22.24-.72,1.56-.13,7-.76,8.4.24,0,0,.94-.05.48-.24a.15.15,0,0,0,0-.08c2.84,2,1,5.35,3.86,6.8,1,.58,5.53.69,6.72.72a6.46,6.46,0,0,1,1-3.12c-.81-.63-1.39-.47-1.92-1.44H264c-.21-.16.46-.46.48-.48a10.29,10.29,0,0,1-1.68-3.36h-.72c-.27-2.13-1.83-1.24-2.16-3.12-.39.11-.42.46-.48.48-.75.24-.47-.47-.72-.72-.59.55-1.67-.06-1.92-.72-.57.21-.4.09-.72.48-.6-.27-2.47-1.78-2.16-2.16-.28-.19-.4-.19-1-.24-.15-.41-.05-.23-.24-.48.41-.25,0,0,.48,0a6,6,0,0,0-2.16-3.36c-.25-.6-1.47-.67-2.16-1.44-.65-.4-.24,0-.24-.72-1.24.19-1.25-.15-2.4-.48-.57-2.19-.3-2.77-.48-4.8H246V407h.48c.31,1.14.64,1.41.24,2.64,1.88,1.34,5.41,2.85,6.72,4.8.9,1.34.72,2.81,2.16,3.6.7.39.55-.2,1.2,0,.49.15,5.78,2.37,6.24,2.88,2.47,2.73,2.07,6.23,5.28,7.92-.4,1.39-1,2.66-1.44,4.32h.24c.36.69,2.35-.08,3.36.24,1.55.49,5.86,3.28,6,5,1.61-.43,3.47-2.72,5.28-1.92,2.25.6,1.45,3.43,4.32,3.12.82-.09.46.59,1,.24h1.68v-.24c-.94-.3-.81-.68-1.44-1.2.27-1-.23-2.75.24-3.6-1.2-1.21-2.83-1.8-3.36-3.12-.24-.58.13-.43.24-1,.07-.37-.44-.32-.48-.48-.41-1.6.8-2.53.48-3.84-.52-2.12-2.45-3.53-3.36-5.28-.34-.66.07-1.06,0-1.44-.19-1-1.26-2.1-1.68-2.88-.1-.19.13-1.23,0-1.44.1-.49.06-.46.24-.72v-.24h.24c.83,2.49,1.94,6.92,4.08,7.92-.25.19-.06.09-.48.24,1.16,1.34,2.64,3.16,2.16,5.76a6.29,6.29,0,0,0-.24,1.92c.17.58.57.65.72,1.44.75.17.5.16,1,.48.41.59,0,.1.72,0,.83.82,1.7,1.38,1.44,2.64-.06.23.07.11-.24.24.15.42.42.35.48.48l-.48,3.12c.24.46.7-.12,1,1.2,2.12-.09,7.43.65,8.4.24.91.75,1.38,3.07,3.84,3.12-.5.86-1.06.48-1.92.72-.61-1-1.39-2.29-2.64-2.64-1.23-.59-3.31.5-5.28.24a51.7,51.7,0,0,0-8.16,0c-1-1.18-2-1.23-2.4-3.12a5.52,5.52,0,0,0-4.32,1.68h-.24c.33.21,2.67.7,3.12,1.2.61.69-.29.77.72,1.2-.25.19-.06.09-.48.24.37.59.57.54.72,1.44a7.61,7.61,0,0,0,1.44.24c1.07-.05.89.14,1-.48,1.61.27,3.39-.39,4.8.72,1.27.45.12,1.14,1.44,1.44-.25.19-.06.09-.48.24.25.19.06.09.48.24-.25.19-.06.09-.48.24.27.37.26.19.48.72h.72c0,1.22.05,1.21,0,1.92,1.9,1,3.41,1.75,3.84,3.84,1.23.3,2.68.34,3.84,1.2.85.64-.25.89,1.2,1.2a1.47,1.47,0,0,1-.48.48s0,.7.17.59L299,457c.29.57.58.57.24,1.2.33.77.86.94,1.2,1.68h.72v1c6.81,0,10.63.23,17.76,0,1.67-.05,4.35-.36,5.52-.24,2.37.24,4.31-.76,5.76.24,2.33-.58,1.84-4.09,2.88-6.48,1.34-3.09,2.27-6.92,3.36-9.84l.72-3.36c2.59-5.1,5.53-12.3,8.16-18l.48-2.88c1.15-3.13,2.78-6.84,3.84-10.08.87-2.66.5-5.13,1.44-7.68.75-2,2.15-4.29,2.88-6.24,1.16-3.08.63-5.54,1.44-7.68a54,54,0,0,1,1.92-5.28l1-.72c.82-1.73,0-2.27,1-3.36,1.6-1.38,2.9,3.23,3.36,4.32,1.66,3.93,2.17,8.89,4.08,13.68,2.1,5.29,4.89,13,7.68,19.2-.49,1.81,1.5,6,2.16,7.92,1.44,4.26,2.13,8.69,3.84,13,.68,1.7,1.92,3.61,2.64,5.28.44,1,.45,2.59.72,3.12,1.75,3.47,3,7.3,4.8,11.52.64,1.49,2.1,3.07,1.92,4.56,2,.07,4.61,1.16,7.44.48,2.33-.56,5.47-.82,7.44-1.2,2.17-.42,5.48.68,7,0h1.44c-.22-.76-.83-1.06-1-1.68-.28-1.33.37-1.85,0-3.6h-.24v-.24l.72-.24a6.43,6.43,0,0,1-.72-.48c.66-1.41.17-1.69,0-3.36l-.72.48a5.09,5.09,0,0,1-.48-1.2,13.64,13.64,0,0,0-1.92,0,11.46,11.46,0,0,1,.72-2.88c-.2-.8-2.64-4-1.68-4.56-.2-.65-.09,0-.48-.48h-.24c.41-.25,0,0,.48,0a10.33,10.33,0,0,0-.24-2.64c-.8-1.84-5.44-2.11-6.24-2.64s-.83-1.34-1.92-1.68c.16-.47.13-1,.24-1.2v-.72c-.21.18-.27.3-.48.48v-.24c0-.09-.05-1.13.48-1.44-.1-.86.13-.63-.48-.72.33-1,.1-2.83,1-3.84-.17-.66.15-.39-.48-.48.24-.55.34-1,.48-1.2-.13-.31-.09-.17-.24-.24a17.48,17.48,0,0,1-2.88-5c-.15-1.06.72-1.47.24-2.64a13.44,13.44,0,0,0-1.2-2.16H396c-.66-.86-.23-1.63-.48-2.4a49.62,49.62,0,0,0-2.64-4.32v-.48h.48a28.93,28.93,0,0,0,3.12,6l1.2,1c.6,1.14.63,2.73,1,3.36.08,1.14.08,1,1,1.2-.25.19-.06.09-.48.24A11.4,11.4,0,0,0,401,422.4a2.87,2.87,0,0,1,1,1.92l.72-.24c-.22.89.35,2.45.48,3.6.17,1.47-.75,4-1,5.52-.08.6.57,1.12.72,1.92,2,.09,6.33,2.12,6.72,1.92,1.43,1.65,1,2.8,1.2,4.8l-.24,1.2.72.48c-.46,1,.7,2.38,1.2,2.88l-.24.72.48-.24c-1,.5,2.7,2.8,2.88,3.12,1,1.75.64,5.49.24,7.68-.23,1.24.67,2.25,0,3.36v.48a5.93,5.93,0,0,1,2.16.24c.82.13,1.93-.36,2.4-.24A13.33,13.33,0,0,0,426,462c5.78-1,13.34.77,22.56.48,5.11-.16,10.91-.82,13.44-.48a1.65,1.65,0,0,1,1.2-.72c-.2-.45-.68-.88-.48-1.68a20.76,20.76,0,0,1,1.2-2.16c.91-2.24,1.37-4.47,2.64-7,2.29-4.5,5.66-9.33,7.44-13.44.72-1.65.6-3.07,1.2-4.8.85-2.45,1.88-4.51,2.64-7s.67-4.3,1.68-5.52c-.36-.15-.1-.3-.48,0-2.78-3.83.8-9.95-2.16-12-.9-.49-2,.19-3.12-.72-.31.13-.17.09-.24.24v.24c-1.25-.5-1.89-.2-3.12,0a2.53,2.53,0,0,0-1.92-1.44c.1-1.27-.86-3-1.44-4.32.23-.81-.79-3-.72-3.36.21-1-1.56-9.27-2.64-10.56-.31-.37-1.17-.57-1.44-1-.81-1.17.14-2,0-2.88-.06-.39-.46-1.32-.48-1.44-.58-2.94-.57-8.87-2.16-10.32V372c2.41.93,4,10.25,3.6,12.72.41.36.77,1.14,1.2,1.44.85.59,1.47.27,1.92,1,1.62,2.48.45,3.91,1.92,6.24.39.23,0,0,.72,0-1.31,2.32,1.92,7.06,1.44,9.6.81.33,1.54,1.43,2.64.72.25.41,0,0,0,.48,1.7-.39,5.84,0,7.44,1.68,1.36,2.2-.86,6.3.48,8.4.15.41.05.23.24.48,2.11-4.31,3.58-9,5.52-13.68a23.68,23.68,0,0,1,2.16-3.12c1.59-2.55,1.77-5.91,3.6-8.16a1.44,1.44,0,0,1,0-1.44c1.54-3,3.56-7.25,4.8-9.84a35.25,35.25,0,0,0,1.44-4.32L499,371c.28-.69,1-2.44,1.44-3.6l.48-2.16c.14-.21.82-.47,1-.72,1.3-2.37,1.7-4.83,2.88-7.2.22-.45,1-.95,1.2-1.44v-1c.76-1.45,2.2-3.25,2.88-4.8,1-2.21,1-4.51,1.92-6.72s2.86-4.68,3.84-7c.9-2.1.72-3.09,1.92-5a34.2,34.2,0,0,0,2.16-3.36,9,9,0,0,0,.24-1.92c1.49-3.26,2.45-7.07,4.08-10.08a6.38,6.38,0,0,1,.48-3.12c2.44-5.82,6.31-14.09,8.64-20.64v-1.2c.86-2,2-4.52,2.88-6.48.95-2.19.74-4.57,1.92-6.48v-.48h-.24c-1.1,2-3.23,2.66-4.56,4.32h-.24c0-1.11.1-1.44.72-1.92v-.24c-2.81.57-2.77,3.45-4.8,4.56l-1-.24.24.48c-2.09,0-5.42-.26-6.48,1a26.81,26.81,0,0,0-2.64,6.24c-1,.24-1.1,1.15-1.92,1.44l-1-.24-.48.72c-1.65-.78-2.7,2-3.36,3.12-.51-.74-6.18,3.48-7,3.36s-2.56,1.12-3.36,1.68c-.87-.41-1.86.72-2.4,1.44-.37-.35-2.37,1.68-2.88,2.16-1.58,1.51-5.48,7.48-5.28,9.12-.26.22,0,0-.24.24-1.52-.39.05-3.14,1-4.56,2.42-3.75,4.16-7.09,8.4-9.36,1.57-.84,2.73-2.5,3.6-1.68.18-.26.15-.22.24-.72,1.85-.07,6.35-3.93,7.68-6.24h1c.61-2.11,3-1,4.32-2.88.57-.83-.19-1.85.48-2.88h.48c.6-.85.4-1.24,1.2-2.16,0,0-.11-.85.24-1.2.62-.63.87-.13,1.2-1.2a20.07,20.07,0,0,0,4.8-.48c-.25.19-.06.09-.48.24.91.42,2.81-.68,3.6-1.44.63-.61.74-1.86,1.44-2.4l1.2-.24c.22-.16.91-1.27,1.2-1.44h1.2l1.44-1.68.48.24c.53-.3.88-1.35,1.44-1.68.15-.09.77.09,1.2-.24.94.19.78,0,1,1h.24c2.51-11.82,8.06-21.14,12.72-30.72.77-1.57,1.46-5.71,1.92-7,.58-1.57,1.75-3.37,2.4-4.8,1.13-2.47.9-4.58,2.16-7.68,1.36-3.35,2.6-5.93,3.6-8.4,1.34-3.32,1.49-6.67,2.88-9.84,1-2.39,3-4.62,4.32-6.72,2-3.1,3.05-6.52,5-9.6,1.83-2.83,3.76-5.35,4.32-9.6C575.5,179.76,572.87,179.15,570.24,180ZM254.4,425.28l.14.11C254.46,425.39,254.37,425.5,254.4,425.28Zm45,31.34s0,.06-.06.08a.74.74,0,0,1-.13.12.29.29,0,0,0,.06-.1l.07,0,.06-.08c0-.08-.11-.17.11-.14Zm8.27-11.18c.07-1.24-.08-1.11-.48-2.16-1.81,0-2.95-.12-3.84.72-.49-.1-.46-.06-.72-.24-.15-.36-.3-.1,0-.48.47-.35,1.74-.09,2.16-.72a8.09,8.09,0,0,1,2.4.48c1.05.79.9,1.52,1.2,2.4C307.8,445.28,308.27,445.37,307.68,445.44ZM393.12,409h-.48a25.15,25.15,0,0,1-1.2-3.36c1.14.7.92,2.07,1.68,3.12Z" transform="translate(-132.24 -178.05)"/><path class="cls-1" d="M204.24,524.4c-1.06.46-1.07,1.94-1.92,2.64,0,1.86,2.26,3.16,3.12,4.8,1.26,2.4-.31,3.59,1.92,5v.72h.72c.16.89.34.79.48,1.68h-.48c-.45-1.71-2-1.87-2.64-3.12-.45-.91.05-2.65-.72-3.84h-.48c-.87-1.23-1.64-2.6-2.4-3.84-1.2,1.62-2.49,10.45-3.36,13.44-.63,2.16.61,3.49-.48,5.28.51.32.44,0,1,0,.8.44,2.2,2.32,4.08,2.64.61.1,1.92-.76,2.64-.48.12,0,.54.66.72.72.54.19.65-.22,1-.24a2.2,2.2,0,0,0,1.2.48c-1.18.83-2.24-.27-2.88-.48s-1.28.22-1.44.24a5,5,0,0,1-4.8-2.16,2.65,2.65,0,0,0-1.44.24c-.45.46-.07,1.41-.48,2.4-.53,1.27-.86,5-1.92,7.68a16,16,0,0,1,0,3.6c-.49,1.18-1.21,2.36-1,3.84h-.48c-.59-3.06-.7-4.78-1.92-7.44-.57-1.25-1.68-2.78-2.16-4.08l-.72-7.2c-.52-1.5-2.08-3-2.4-4.56-.42-2,1.48-4.44,1-6.24-.45-1.55-2.09-1.78-2.88-2.88-.52-.72-.46-8.31-.24-8.64v-.48c-.91.61,0,1.16-.48,2.16l-1,.48c-.53.69-.61,1.55-1.2,2.16-.75,1.35-4.89,1.46-6.24,2.16v-.24h-.24v-.48c1.28-.28,4.39-.48,5.52-1.2,1.38-.48,1.73-2.82,2.4-3.6v-1.44c-2.13-.42-3.52-.67-5.52-1.2h-1.44a9.18,9.18,0,0,0-1.44-.72c-1.37-.18-4.18.82-5.52.24a2.87,2.87,0,0,0-2.16.72l-1.44,4.08c.06.33-.92,6.52-1.44,9.12-.17.86.19,2.38,0,3.12-.84,3.27-1,7.2-2.16,10.08l.24.72c-.78,2.3-3.15,6.73-2.16,8.64a4.62,4.62,0,0,1-.72,3.12h-.48c-.75-2.14-.13-4.09-1-5.76-.54-1.07-1.73-1.85-2.16-3.12l-.48-4.08V544.8c-1.36,1-2,2.91-3.36,3.84-1.65,1.1-3.67,1.54-4.8,3.12l-1.92-.24c.65-.37,1,.06,1.68-.48h.24c-.33-.22-1.12.05-1.2,0-2.39-1.47-3.61-.28-7,0,.5,4.12,1.73,7.28,2.64,11.28.14.63-.31.9-.24,1.44.09.69.83,1.78,1,2.4.49,2.27.22,5.6.72,7.68a10.42,10.42,0,0,1,.72,3.36c.71-.11.81-.12,1.2-.48,2,.16,2.12,1.39,3.36,2.16,2.16,1.34,4.37,2.51,7.2,2.4v.24h.24V582c-.9-.15-2.16.14-2.64,0-1.52-.45-3.28-2-4.56-2.88-.3.14-.54.32-1,0-1.13-.86-1.47-1.56-2.64-1.92a1.47,1.47,0,0,1-.48.48,12.18,12.18,0,0,0,1.2,4.08c-.4,1.86,1.58,8.74,2.64,10.32.93,1.23,1.8,1,3.36,1.68a36,36,0,0,0,14.4,2.88,55.71,55.71,0,0,1,4.32-15.6c.8-1.68.46-4,1.44-5.52a4.12,4.12,0,0,0-.72-2.4c-2.26-.49-2.13.23-4.32.48a16.09,16.09,0,0,0-5.52-3.6,2.41,2.41,0,0,0-1.2-1.68v-.48a65.78,65.78,0,0,1,7,5.28c1-.2,1-.64,1.68-1a1.94,1.94,0,0,0,1.44,0c1.1.17,1.16.53,1.68,1v.48c1.09-1.56.17-2.71.72-4.8.46-1.75,1.43-3.7,1.92-5.28.58-1.85-.64-2.68.72-3.36-.11-1.63-.82-2.4-1.2-3.6,2.48-1.57.72-2.89,1-5,0,0,.27-1.86.24-1.92-.3-.59-1.32-.92-1.68-1.44-.75-1.06-.66-2-1-3.36.21-.18.27-.3.48-.48v-.24c.31.47,0,1.24.24,1.92a10.83,10.83,0,0,0,1.44,2.4l.72.24c.34.7.21,2.28.48,3.36.68,2.71-1.57,4.55-1.2,5.76.22.74,1.19,1.37,1.44,1.92v1.68c.26.73,1,1.89,1.2,2.64l.48,4.56c.34,1.21,1.35,6.38,1.68,8.16s-.51,2.63-.24,3.84c0,.1.48,1.6.48,1.68,0,.46-.32,1.13-.24,1.44a15.1,15.1,0,0,1,1,4.56c.58-.27,8.5-2.72,8.64-2.64,2.53.17,5,4.28,7.2,3.12,1.77-.12,1.38-1,2.4-1.44.58-.24,1.73.07,2.64,0v.24c-2.14.56-2.71.59-3.6,1.92l-3.12.24c-.16-.09-.5-.86-.72-1l-1.92-.24c-.68-.28-1.43-1.16-2.16-1.44-.42.1-1.41-.06-1.68,0-.73.15-1.38,1-1.92,1.2a14.18,14.18,0,0,1-5.28,1c.33,2.73,2.14,5.61,2.64,7.44a29.29,29.29,0,0,0,.72,3.36c1.51,3.29,7,1.43,10.08,1.92a51.46,51.46,0,0,0,6.48,1c.29-1.87,1.53-3.55,2.16-5.28,1.51-4.15,1.93-8.6,3.6-12.72.93-2.29.54-4.43,1.2-7,1.16-4.41,1.09-7.48,2.4-11.52.69-2.13.93-4.24,1.44-6.24.66-2.6-.67-5.74.72-7.44.26-.18.22-.15.72-.24a81,81,0,0,1,1.44-9.12c.22-1.18-.17-3.63.48-5.28.9-2.28,2.7-8.63,2.64-12.24-3.8-.15-7.76-.48-9.84-.72C207.36,525,205.47,523.76,204.24,524.4Zm-1.44,50.88a30.4,30.4,0,0,0-5-5.52v-.48H198c.33.38.15.28.72.48v.72c1,.21.88.53,1.92.72.33,1.58,1.85,2.31,1.92,3.6.64-.26,1.39-.55,1.92-.24H205C204.45,575.54,203.72,575.06,202.8,575.28Zm5.28,3.12h-.48c-.37-1.6-1-2.88-2.4-2.88l.24-.72c1.34.42,1.6,1.32,2.64,2.64Z" transform="translate(-132.24 -178.05)"/><path class="cls-1" d="M136.08,536.4c-.18.26-.15.22-.24.72a4.47,4.47,0,0,0,2.4-1,9.35,9.35,0,0,0,.24-1.68c1,.16,1.12-.61,1.92-1.2.11-.08,1.33.29,1.92,0a44.71,44.71,0,0,0,3.12-4.32c1.1-.09,1.43-.32,2.16.24h.48V529c-2.53-1.24-.92-2.05-2.16-3.36-.68-.73-1.77-1.14-2.4-1.92-.17-.33-.08-.3.24-.72v-.24a86.83,86.83,0,0,1-11.52-.72c0,1.82,1.28,1.48,1.68,2.64l-.48,2.64a81.69,81.69,0,0,0,1.92,8.16c.27.47.77.58,1.44.72C136.37,536.79,136.66,536.52,136.08,536.4Z" transform="translate(-132.24 -178.05)"/><path class="cls-1" d="M139.92,548.88h.24a2.26,2.26,0,0,1-.72,1v.24c4-.61,4-1.62,8.64-.24v-.24c.47-.27.23,0,.24-.48.46-.32,1.11-.17,1.68-.48.93-.5,4.59-5.18,5.28-6.24,1.08-1.85-2.6-8.06-3.12-9.6-.41-1.23-.28-2.46-1-3.36-.41-.39-.48,0-1,.24v-.24H150c.21-1,.36-.35,1-1.2.28-.6-.33-4-.24-4.8h-.24v-.24a54.64,54.64,0,0,0-6.48-.48c.33,1.63,2.26,2.3,2.88,3.6.28.58-.14,1.26.24,1.68.53.58.84.09,1.44.48s-.36.09,0,.72,1.07.47,1.44.72v.24c-1.6-.11-2.32-.66-3.84-1-.44.86-2.82,4.15-3.6,4.56-1,.52-2.34.25-3.12,1l-.24,1.2a4,4,0,0,1-2.88,1.92c.22,4.08,2.49,8.29,2.64,11.76A2,2,0,0,0,139.92,548.88Z" transform="translate(-132.24 -178.05)"/><path class="cls-1" d="M276,531.12c-1.27-.58-2.82.09-4.32-1-.94,1.14-3.12,3.63-4.8,3.84.18.21.3.27.48.48a8.17,8.17,0,0,1-1.68.24c-.6-.35-.28.06-.48-.72-2.56,0-4.57-.08-5.76,1.2-.22.42-.18,1.07-.48,1.68a3.16,3.16,0,0,0-1.68.24c-.49-.1-.46-.06-.72-.24h-.24v-.24a12.53,12.53,0,0,1,2.88-.72l-.48-.72c.93-.72,1-1.59,2.16-2.16s4.52-.34,5.76-.24c.18-1.31,4.46-5.32,5.52-6.72a23.25,23.25,0,0,1-2.64,0c-.14,0-.13-.59-.48-.48a17.34,17.34,0,0,1-5.28.48,22.06,22.06,0,0,0-4.56-.24,15.24,15.24,0,0,1-4.08.24,10,10,0,0,0-3.36-.24,2.72,2.72,0,0,1-1.44.24c-4.52-1.31-12.21-1-18-1.2l1.2,1.44a20.12,20.12,0,0,0,2.64.72c.52.64.17,2,.72,2.64.81.89,2,.73,1.92,1.92-.35.6.06.28-.72.48a3.1,3.1,0,0,1,.24,1c1.56.25,1.46,1.07,2.64,1.92v.24a2.62,2.62,0,0,1-1.92-1.44h-1a5.85,5.85,0,0,1,0-2.88c-1.85-.29-1.6-1.91-2.16-2.64s-1.49-.47-1.92-.72c-.92-.54-1.91-2.27-2.88-2.64l-1,.24c-1.79-.41-3.92-.79-4.56-.48-.35.18-.52,6.73,0,9.12.94,4.32,1,13.63.24,17-.43,2,.51,3.51-.48,5a3.41,3.41,0,0,0,.24,1,8.82,8.82,0,0,0,3.6-1c.49-.36.53-1.14,1-1.44,1.18-.84,2.37-.31,3.12-.72h1.2l-.24,1a18.5,18.5,0,0,0-3.12,0c-.05.56-.05.68-.24,1,.09,1.24.39,1.44,1.44,1.68.86.64,2.43.11,3.12-.72h.72V557c-1.14.58-2.93,1.86-4.56.72-1-.28-.84-.79-1.68-1.2s-3.35.62-3.36,1.44a1.72,1.72,0,0,1-1-.48c-.95,1.26-.08,2-.48,4.08-.8,4.13.3,14,.24,18.24,0,1.24.39,2.29,0,2.88.1.49.06.46.24.72.1.08,3.29,1.14,3.6,1.2-.39,1.3.6,2.58,2.16,3.6v.24h-.24v.24a4.87,4.87,0,0,1-2.4-2.16.74.74,0,0,1,.24-1.2c-.54-.41-1.21-.5-1.68-1-.88.16-.91.44-1.44.24-.68.86-.23,6.26.24,7V593a6.12,6.12,0,0,0,.72-.72,24.12,24.12,0,0,1,5,2.16h1a10.2,10.2,0,0,1-2.16-5h.72c.32,1.76,1.36,2.54,1.68,4.56.84-.14,2.16-1.33,3.12-1s4.36,2.87,5,2.64h.48a2.57,2.57,0,0,1-.48,1.2,8.62,8.62,0,0,1-2.64-2.16,16.65,16.65,0,0,1-3.6-1,10.51,10.51,0,0,0-1,1.2c-2.26.17-5.07-.13-6.48-1.92a2.41,2.41,0,0,0-1.2.72c-.69.82.52,2.39.24,3.84-.59,3,0,6.44-.48,8.88a114,114,0,0,1,23,3.84c3,.8,8.06.88,11.76,1.92,3,.85,9.89-.7,12.24.72,1.24,0,1.41-.23,1.68-1.2h.72c0-6-.56-13,.24-20.16a12.2,12.2,0,0,1-2.88-.48c-.62-.14-1.45.32-1.92.24-1-.18-3.27-1.51-4.8-1s-4.19,1.66-5.76,2.4c-.15.78-.42,1.9-.24,2.16a3.18,3.18,0,0,1-2.4,2.4c.16.24.63.34.72.48.74,1.21-.7.92.48,1.68a2.65,2.65,0,0,1-.24,1.44v.24c-.77-.5-.67-2.63-1.2-3.36a2.27,2.27,0,0,0-3.12,1.2c-.77-.21-.37.13-.72-.48-1.15.51-1.06,2.17-1.44,3.36a26.78,26.78,0,0,0-2.88.72,1.47,1.47,0,0,0-.48-.48c1.28-1,2.37-.38,3.12-1.44h.48c-.26-.18-.22-.15-.72-.24.15-.64.62-1.34.48-1.44.42-.76,1.77-.94,2.88-1,.1-.69,0-1.19.24-1.68v-.48c1,.32,1.18.88,2.16,1.2a4.72,4.72,0,0,1,2.4-1.68,4.12,4.12,0,0,1-.24-2.64c.66-.6.29-.83.72-1.44s1.41-.73,1.92-1.2h.24v-.24c-4.05-.08-8.61,0-11.28-.48-2-.37-4.09.27-5.76-.72-2.05-2.71,1.2-9.89,1.2-13.2,2.81-.46,10.22,1.29,13.92,2.16,3.24.77,7.57-.62,8.88,0h1.2c-1.53-5-.82-13.64,1-18.48-.19-.25-.09-.06-.24-.48-1.46.41-4.5-.65-6.72-.48-4.32.34-7.56-1.74-13.44-1.68-.07.77-.21.77,0,1.2V558l-.48-.24a2.65,2.65,0,0,1-.24,1.44,5.22,5.22,0,0,1-4.08,2.16c.29.79.64.73,1,1.44a2.11,2.11,0,0,0,1.2-.24c1.37.15,1.23,1.07,1.68,1.92,1.48.61,3,.47,3.84,1,.62.34.74,1,1.2,1.44v.72h-.24c-1.13-2.28-1.83-1.3-3.6-1.92-.78-.27-.92-.81-1.92-1-.1-.49-.06-.46-.24-.72l-.24-.72c-2.6,0-2.34,1.46-2.88,3.36-2.49.49-4.78.29-6.72,1.68-.6.43-.73,1.23-1.44,1.68v-.24h-.24c.83-2.4,3.95-3.13,5.52-3.6,1.08-.32,1.46.44,2.16,0,.89-.56.44-2.24,1.44-3.36a5.41,5.41,0,0,0-1.44-1c.1-.49.06-.46.24-.72.63-.5,1.78-.32,2.16-.48.83-.35,1.49-1.25,2.4-1.68a7,7,0,0,1,.24-2.16c-.93-.41-2.41,0-3.12-.48a3.58,3.58,0,0,1-1-.48c-.1-2.13-.54-7.77,0-8.88v-.72c-.41-.15-.23,0-.48-.24a5.87,5.87,0,0,0-2.16,1c0,1.15-.05.51.24,1.44-.47.47-.57.84-1.2,1.2-.58.6-4.18-.19-5.76.48a12.39,12.39,0,0,0-3.84,3.12H233c.3-2.8,4.18-3.58,6.24-4.08,1.18-.29,2.74.25,3.6-.24h.48c-.11-.78-.41-1.36-.24-1.68.37-1,.84-.72,1.2-1,3.73-2.49,2.21-.09,7.2-1.2,2.7-.6,11.17,1.71,13.92.72h11c-.35-.14,0-3.35,0-4.8,0-3-1-6.37,0-9.6Z" transform="translate(-132.24 -178.05)"/><path class="cls-1" d="M275.76,526.32a15.54,15.54,0,0,1-3.36,2.4l.24,1.2s.94,0,.48-.24h-.24v-.24c1.41-.11,2.64-.36,3.36.48h.24a19.45,19.45,0,0,1-.24-3.6Z" transform="translate(-132.24 -178.05)"/><path class="cls-1" d="M336,574.08a18.79,18.79,0,0,0,2.4-3.36c.37-.88,0-1.48.48-2.16,1.15-1.73,3.37-3.39,4.32-5.28,2.25-4.46-.75-8.07-1.92-11.52-1.4-4.13.47-8.69-1.2-12.24-2.51-5.32-7.69-9.11-12.24-11.76a1.47,1.47,0,0,1-.48.48c-.13,1-.42,1.5,0,2.16.11,2.57-1.72,3.21-3.36,3.12a17.23,17.23,0,0,1-2.16,4.32c-.25.19-.06.09-.48.24v-.24h-.24a27.9,27.9,0,0,1,2.64-4.8,3.57,3.57,0,0,1-1.44-1.44,1.28,1.28,0,0,1,0-1.44v-.72a1.47,1.47,0,0,0-.48.48,8.15,8.15,0,0,0-.72-.72v-.48c.94.27,1.21.71,2.16,1a5.59,5.59,0,0,1-.48,1.92c.15.41.05.23.24.48.3.44.12,0,.48-.24a7.91,7.91,0,0,0,1,1,3.11,3.11,0,0,0,1.92-.72c1.21-1.64-.81-3.11.72-4.56-1.1-.92-7.11-2.4-8.64-2.16s-5,.76-6.72.48a58.6,58.6,0,0,0-13.92.24c-1.29.24-2-.27-2.88-.24-1.92.06-5.89.29-6.72.72-1.28,0-3.72-.31-4.56.24-.95,1.32-.18,3.72-.48,5-.41,1.82-1.53,4.2-1.44,6.24,0,.38.4.28.48.48-.1.44.05,1.38,0,1.68-.2.11-.62-.23-.48.24l.48.48a7.27,7.27,0,0,0-.24,2.4c.36,1.37,1.52,4.24,1.2,6.48s.61,4.79.24,7.2a21.56,21.56,0,0,0-.24,5.28,10.8,10.8,0,0,1,.24,3.6c-.2,1.18.44,5,0,6.48-1.13,3.74-1.32,12.11-1.2,17a4.64,4.64,0,0,0,.72,1.68,6.78,6.78,0,0,0,.24,3.12c.78,3.47-.36,9.16-.24,11.76.06,1.31.37,4.32-.24,5.28a9,9,0,0,0,.48,1.44c2,0,3.64.72,5.52,1,2.21.28,5.58.15,7,.48,1.79.43,4.55-.17,6,.72,2.17-.56,2-4.46,2.64-6.72,2-6.76.18-12.13-.24-18.72a2.89,2.89,0,0,0-1.44,1.44c-2.09.1-3.37-.51-5.28-1.2a5,5,0,0,0-.72,1.92c-1.76-.08-1.46-.32-2.88,0-.25-.19-.06-.09-.48-.24.15-.41.05-.23.24-.48s1.84.11,2.4-.24.57-.49.72-1.2c.62-.1,1.89-.66,2.64-.24.93.52,1.39,1.83,3.12.72,1.07-.58.16-.83.72-1.92.31-.6,1.05-1,1.2-2.16s-.8-3-.24-4.08l.24-.72c1.67,0,6.57.69,7.44,1.44h.48c.16,1.39.49,2.93,0,3.84v.24c1-.26,1.43-.71,2.4-1l.24.72h.24v.24c-.84.3-1.58.49-2.64,1-.39,2.64,1.51,6.13,2.64,9.12a38.39,38.39,0,0,1,2.16,10.08c1-.64,1.61-1.54,3.12-1.68-.09,3.64,2.4,2.7,3.84,4.8,1.19-.2,3.83-2.31,4.56-3.12.18-.26.15-.22.24-.72,1.48.31,1.2,1.41,2.16,2.16a1.51,1.51,0,0,0,1.2,0h1.2l-.24.72a23.54,23.54,0,0,0-2.4,0,3.54,3.54,0,0,1-1.2-1.92,23.41,23.41,0,0,0-4.56,3.6,25.65,25.65,0,0,1-4.08-1.92c-.67-.65-.79-2-1.44-2.64a6.74,6.74,0,0,1-2.16,1c.3,3,.85,6.38,2.16,8.64,3.49.61,8.2-.4,12.48.24,2.7.4,5.33-.79,7,.24a15.47,15.47,0,0,0,4.32-.48c-1-4-3-7.9-4.32-12.24-.62-2-.16-3.93-.72-5.52-.94-2.7-1.26-4.66-2.4-7.2s-5.56-9.16-4.56-12.48C331.64,575.71,334.82,575.65,336,574.08Zm-46.56-26.64c-.22-.21-.79-1.08-1-1.2L286.8,546c-1.11-.66-.46-2.23-1.92-2.16a1.65,1.65,0,0,0-1,1.92,3.1,3.1,0,0,0-1-.24,1.94,1.94,0,0,1,1.44-1.92,5.07,5.07,0,0,1,1.68-.48,7.73,7.73,0,0,0,.72,1.68c.29,1.43.57.22,1.92,1,.58.32.55.94,1.44,1.2C290,547.13,289.63,547.28,289.44,547.44Zm12.48-15.12c1.19.67,2.08,3.06,3.84,4.08a3.28,3.28,0,0,1-2.64,2.88,26.66,26.66,0,0,0,3.36,3.36v.72c.61.14,1.19.34.72.72-.15.41-.05.23-.24.48-.62-2.07-2.75-3.7-4.8-4.8.25-1.22,2-1.88,2.88-2.4-.29-1.44-3.08-3.79-4.08-4.8-.18-.26-.15-.22-.24-.72C301.43,532,301.53,532,301.92,532.32Zm10.8,29.28c-1.58.46-3.79.12-5.28,1.44a2,2,0,0,0-1.68,0c-1,.5-1.5,2.17-2.4,2.64-.72.38-1.28-.17-1.68.48a24.17,24.17,0,0,1-1.44,2.88v.48H300c-.49.21-.75-.34-1-.24-.55.26-1.37,1.09-1.92,1.44.09,1.11.32,1.26-.24,1.92v.24h-.48l.48-2.88c.91-.41,2.42-.78,2.88-1.68.23-.47-.07-1.18-.24-1.92a1.47,1.47,0,0,0,.48-.48c.6-.16.13-.07.72,0,.84-2,1.39-4.59,3.36-5.52,0-3,.36-11.64-.48-13a4.87,4.87,0,0,1,.48-2.64c7.16.05,12,1.33,16.32,4.08.21,1.84.09,2.77.24,4.08C321.29,558.53,316.77,560.41,312.72,561.6Zm15.36,34.8c-.41.15-.23.05-.48.24a14.57,14.57,0,0,0-1.92-1.44,11,11,0,0,1,1-2.88c-1.12-.46-2.23.19-3.12-.24l-1.2-1.68-1.68-.24-.48-.72c-.52-.16-1.4.34-1.68.24H318v-.48c1-.18,1.12,0,1.68-.72,1.35.25,2.72,1.48,3.84,2.16v.72a4.65,4.65,0,0,1,1.92.24s.94-.05.48-.24h-.24v-.24a3.93,3.93,0,0,0,1.2-.24v.24h.24c0,1.59-.09,2.69-1,3.36a7.2,7.2,0,0,0,1.92,1.68ZM330.24,547a3.08,3.08,0,0,0-1.92,1.2h-.24c.25-1.13.89-1.14,1.44-1.92a7.62,7.62,0,0,1,3.12,1.92c.77-.76,3,.23,3.6-.24.43-.32.06-.47,1-.72a1.92,1.92,0,0,0,0-1l.48.24a3,3,0,0,1-1,1.68C335.05,549.24,331.35,548.31,330.24,547Z" transform="translate(-132.24 -178.05)"/><path class="cls-1" d="M389.52,532.56a3.41,3.41,0,0,1,1,.24c.15.46.19,1.31.24,1.44v.48H391c1.05-1.92,2.41-5.09,5-4.56-.2-1.62-1.23-2.28,0-3.36-.52-.32-1.54-.21-2.4-.48-.35.29-.43.52-.72.24-5.35-.16-3.17,3.07-5.52,5.52a2.66,2.66,0,0,0,.72.48A1.78,1.78,0,0,0,389.52,532.56Z" transform="translate(-132.24 -178.05)"/><path class="cls-1" d="M396,529c.21-.18.27-.3.48-.48.39.69.38,1,1,1v.24h-.24c-.48,1-1.15.79-2.16.72-.39,1.28-2.11,1.51-2.64,2.64a12.29,12.29,0,0,0-.24,1.68c-.84.14-.72-.05-1.2.48a21.33,21.33,0,0,0,3.84,2.88c.36-.58.82-.91,1.2-1.44a4.89,4.89,0,0,1,2.16,1c.92.91,2.72-1.26,4.56-1.44.3-2.17,3.44-7.3,4.8-8.64-1.38-1-9.16-1.06-10.32-.72-.15-.2-.56.32-1.2.48A8.57,8.57,0,0,0,396,529Z" transform="translate(-132.24 -178.05)"/><path class="cls-1" d="M352.56,532.8H353c.42.32.41,0,.72.24,1.8-.06,1.34-.64,2.4-1.2-.26-.6-.45-.7-.24-1.2a3.63,3.63,0,0,0-1-2.88l-2.88-.48C352.38,528.85,353,531.24,352.56,532.8Z" transform="translate(-132.24 -178.05)"/><path class="cls-1" d="M358.08,528.24h.24v-1h-.48c.15.41.05.23.24.48Z" transform="translate(-132.24 -178.05)"/><path class="cls-1" d="M356.4,529.68c.15.41.05.23.24.48v.24h.24c.37-1,.18-1.93,1-1.92-.25-.51-.82-1.08-1.2-.72h-.48c.26.18.22.15.72.24C356.79,529,356.87,529.23,356.4,529.68Z" transform="translate(-132.24 -178.05)"/><path class="cls-1" d="M404.64,591.12c-1-2.8-2.48-5.65-3.6-8.16l-1-4.08c-1-2.54-2-5.27-3.12-7.92-1.3-3.05-5.39-8.94-5-12.24.26-2.47,2.94-4.88,4.08-6.72a37.51,37.51,0,0,0,2.16-4.56l.24-1.68c.22-.37,1-1,1.2-1.44,1.08-2.1,1.11-5.29,2.64-7v-.48c-2.05,1-3.81,2.14-6,.48-.18.26-.15.22-.24.72a1.75,1.75,0,0,1-.59-.12c-.29.52-.24,1.31-.61,1.8a21.07,21.07,0,0,0-2.4,1.92c-.74,1.22.25,2.1-.72,3.36-.32.77-.73.65-1.2,1.2H389v-.48a16.87,16.87,0,0,0,2.64-1,3.82,3.82,0,0,1,0-2.16c.06-2.16,1.67-2.94,2.64-3.6a5.27,5.27,0,0,0-3.36-2.4c.21-.94-.73-1.86-.72-3.12-.84-.28-2.25-.24-2.88-.72-1.21,1.28-2.19,4.38-2.88,5.52-1.25,2.08-3.4,3.82-4.56,6-.68,1.28-.91,2.69-1.92,3.6v.24a27.86,27.86,0,0,1,3.6-.24,2.11,2.11,0,0,0,.24,1.2c.21.8,4,4.3,4.8,4.8a4.67,4.67,0,0,0,0,2.4c.08,1.16.12,1.28,1,1.44V558h-.24c-.33.17-.3.08-.72-.24-1.25-.5-.82-1.63-.72-3.36-.92-.85-3.55-3.11-4.08-4.08h-.72a2.11,2.11,0,0,0-.24-1.2v-.48a3.14,3.14,0,0,0-2.4.24c-1.4.18-3.83,8.21-5,9.6-.34.67-.67.54-1.2,1h-.48c-1.1-5.77.61-12.55,1.2-19a33.87,33.87,0,0,0-.72-9.84c-.36-1.44.12-3.3-.24-3.84v-1c-.79.23-2.31-.17-3.36,0-2.12.34-5.54.69-8.16,1-.59,1.5-1,3.12-2.64,3.6-.2,1.59.75,1.93,1.2,3.6.39,1.45-.28,2.27.24,3.84a8.43,8.43,0,0,1,3.84,1l.72.24c-.14,3.08-1.37,5.54,1.2,7.44V547c-1.17-.42-1.45-1.51-2.4-2.16-.08-1.91-.09-3.14.72-4.08-.18-2.09-3.35-2.06-4.8-2.4-.42-1.22.3-4.52-1.2-5.28v-.24c-1.12.56-1,1.62-2.4,1.92a1.15,1.15,0,0,1-1.44-.48H353c.07,2.33.5,3.4.72,5.52.3,2.93-.61,7.91-.72,10.8-.1,2.62-1,8.76-.24,10.56v6.72a1.8,1.8,0,0,0,1-1c1,.38,1.34,1.36,2.16,1.92,1.44-.71,4.14,1.31,5,1,1.2,0,1.13-.14,1.2.48.58-.32.17.11.48-.48a5,5,0,0,1,4.32,2.4c1.28,0,2.11-.45,3.12-.24a7.76,7.76,0,0,0,1.68.48l1.92-.24c.95.26.66.84,1.68.72v.24h.24c-.21.57-.09.4-.48.72a6.89,6.89,0,0,0,2.16,2.64c.68.63,3.92-1.11,4.8-1.92a3.24,3.24,0,0,1,2.64,1.44h-.24v.24c-.89-.27-1-.38-1-1-2.5-.08-4,2.28-6.72,1.92-1.15-.85-2.78-2.61-4.08-3.12-2.67-1-5.73.69-7.92.24-.67-.14-1.12-1-1.68-1.2-1.09-.39-3.24.22-3.36.24-1.59.28-3.13-1.3-3.84-1-1.7.06-2,.64-3.12,1.2.13,3.38.27,6.68-.48,9.12-.33,1.06.57,2.51-.24,3.84v.24c1.37-.51,2.59-2,3.84-1.44a3.93,3.93,0,0,1,1.2.24,8.11,8.11,0,0,0,.48,1.44c.23,1.88,5.46,3.54,7.2,2.88a3.7,3.7,0,0,0,1,1.68v.48c-1.3-.28-.72-.74-1.44-1.44-.2-.19-2.87.17-3.6-.24l-.24-.72h-1c-2.52-1.5-1.84-1.24-3.12-3.84-2,.18-2.73,1.22-4.32,1.68-.32,7.67-.73,16.7.24,22.08.3,1.64-.55,3.58,0,4.56.06,1.39.38,1.25.72,2.16,2.74,0,10.48-.84,11.52-.24,1.34,0,4.77-.61,5.76,0a1.59,1.59,0,0,0,1.44-1c.71-.84-.25-4.14.24-6.48.38-1.81-.55-3.63,0-5.76a42.2,42.2,0,0,0,.48-9.36,24.09,24.09,0,0,0,4.8-5.28c.2-.38,0-2.34.24-2.64v-.48c2.52.27,2.09,3.5,3.6,4.8.42.63,0,.33.72.24.93,3.66,3.89,10.21,4.08,15.6.46-.39.46-.21.72-.48h.24V605h-.24c.27-.79,2.07-1.76,3.36-1.68.1.49.06.46.24.72,0,1.24.23,1.41,1.2,1.68.17.34,4.84,1.16,6.72-.24h.72c-.15.41-.05.23-.24.48-2.8,2-6.21.32-8.16.48-.71-1.07-.89-.82-1-2.4-1.74.41-2.15,1.35-3.36,2.16a29.94,29.94,0,0,0,3.36,9.6,23,23,0,0,0,7.44,0c2.08-.32,4.2.52,5.76.24,3.48-.62,6.63-.74,10.32-1.2v-.24h.24c-.18-4.37-5.21-10.26-6.72-14.16C405.45,597.6,405.73,594.27,404.64,591.12Zm-15.12-1.2c-1.49-.11-3.36-.74-4.08-1.68-1.28.46-1.94,1.55-3.12,2.16v-.24h-.24a8,8,0,0,1,2.88-2.4c.3-.18.23,0,1,0V588h-.24c.41.73,3,.93,3.84,1.44a8.57,8.57,0,0,0,.48-2.88C391.34,587.51,390.58,588.93,389.52,589.92Zm3.12-6.72c-.45.42-2.21,2.17-1.92,2.4v.24l-.72-.24a4.43,4.43,0,0,1,2.16-2.4v-.48A2.33,2.33,0,0,0,391,582a11.44,11.44,0,0,1,1.2-1.68h.48A3.87,3.87,0,0,0,392.64,583.2Z" transform="translate(-132.24 -178.05)"/><path class="cls-1" d="M497.76,596.16c-1.63-2.5-2.26-6.43-3.36-8.64-.82-1.66-2.36-3.54-2.88-5.28h-.24a1.47,1.47,0,0,1-.48.48c.22.44.58.41.24.72v1.2h-.48a10.76,10.76,0,0,0,0-2.64c-1.75-.17-3.61-.37-4.56,0-1.61-.34-8.1-4.9-8.64-6.24a6.5,6.5,0,0,0-1.92,1.44l-1.68-.24v-.24h-.24c.1-.49.06-.46.24-.72s.65.16,1,.48c1.52-.16,1.39-.88,2.16-1.68v-.24h.24c2,3.21,7,5.56,9.36,7.2.16-.6.07-.13,0-.72,1,.12,3.55.16,4.08.48h.24c-1-3.22-3.52-5.84-5.28-8.4a39.78,39.78,0,0,1-5-10.56c1.3-1.07,4-6,4.8-7.68.84-1.84,1-3.84,2.4-5-.23-1-.86-2.34,0-3.6v-.48h-.24a5,5,0,0,1-.48.72c-.58.8-.09-.23-1,.24-.52.28-.76,1.3-1.2,1.68-1.34,1.15-5.22.22-6.24-.48-2.17.18-2.54,1.25-3.84,2.16-.38.3-.13-.33-.48,0H474l.24-.48a5.31,5.31,0,0,0-1.44,0l.48-.72a2.57,2.57,0,0,1,1.2.48,7.37,7.37,0,0,1,4.08-2.16c1.57.39,2.6,1.32,3.6,1,3.16-.07,3.48-2.59,6.24-3.36.13-.66,0-.68.24-1,.71-.76,1.09,0,1.68-.48.8-.59,1.23-2.63,1.68-3.6,1.34-2.9,2.94-5,4.32-7.68,1.14-2.24.83-5.65,2.64-7.2-1.06-.83-2.8-.43-3.84-.72a16.75,16.75,0,0,0-5-.48l-1.44.24a15.75,15.75,0,0,0-4.08-.24c-1.35.34-2.16,1.34-4.32,1.44a11.41,11.41,0,0,0,2.88,1.44,6.76,6.76,0,0,1-1.68,2.64,26.73,26.73,0,0,0,5,4.8s-.19.46,0,.72V535a2.27,2.27,0,0,0,.56-.1.37.37,0,0,0-.08-.14h-.24v-.24H487v.24c.15.06.14.1.08.14a9.73,9.73,0,0,0,.64,2c.05,1.07-.14.89.48,1v.72a5.09,5.09,0,0,0-1.2-.48,7,7,0,0,1,0-1.44c-.23-2.23-2.58-2.29-2.4-4.08-.52.22-.35.21-.72.48-.71-1.43-1.9-2-2.88-3.12-.44-.75.62-2.14,1-2.4-.17-.79-.25-.56-.48-1.2a10.88,10.88,0,0,0-1.68,0c-.91.42.17.43-.48,1.44-.13.2-.83.47-1,.72-.36.66-.09,1.28-.48,1.92h-.48c-.25.49.34.74.24,1l-.72.48-.24,1.92a110.2,110.2,0,0,0-6.72,14.4c-.41.15-.23.05-.48.24-.56,0-.68,0-1-.24-.93-2,1.63-6-1-9.36v-.48a13.76,13.76,0,0,1-2.4,1.2,3.7,3.7,0,0,0,0,2.16h-.24v.24h-1a8.08,8.08,0,0,0,1-3.84c.92-.06,1.42-.28,1.92,0h.48c-.75-4-3.87-6.25-5.76-9.12-.65-1-.6-2.08-1.68-2.64-1.27-.66-2.92.46-5.52,0a41,41,0,0,0-7.68,0c-1.63.4-3.69.88-5,.48V527c.08.47.8.64,1.44,1.2.17.18.32.53.48.72-.25.19-.06.09-.48.24.73,1.09,2.09,1.21,2.88,2.16,0,0,.79,2.52,1.44,4.56a2.26,2.26,0,0,0-1,.72,13.88,13.88,0,0,1,3.12,4.08c.61.06,1.14-.11,1.68.24h.48v.72A4.63,4.63,0,0,1,449,541c-1.15-.85-1.61-2.46-3.12-3.6.26-3,.91-5.81-2.88-6.72-.25-1.1-.4-1,0-1.68-1.22-.29-2.18-.83-2.4-2.16-1.63.36-3.25.81-3.84.24h-.72c.53,1.52.52,3.4,1.44,4.56,1.16,1.47,3,2.84,3.84,4.56,1.77,3.47,2.15,8.22,3.84,11.76l.24,1.44c2.1,3.24,5.05,6.09,7.44,9.12,1.05,1.33,1.79,3.85,3.36,4.56h2.4c.33.15.88.94,1.2,1.2.25-.18,1.33-.26,1.92-.72,1.39.21,1,1,1.92,1.44,1.26.55,1.6-.44,2.64.24-.86.66,2.36,3.19,3.12,3.36l1.2-.24v.24a1.47,1.47,0,0,0-.48.48c-2.59-.12-3.7-1.61-4.56-3.36a19.4,19.4,0,0,1-2.16,0c-.5-.22-.74-1.29-1.44-1.44s-1.3.59-1.68.72a14.73,14.73,0,0,1-3.12-1.44h-.48a7.84,7.84,0,0,0,1,1.92v1.92c-.24.49-1,.4-1.44.72a14,14,0,0,0-2.64,3.84c-1.19,2.44-.83,5.55-2.4,7v.24a5.7,5.7,0,0,0,2.64-1.2c2.58,0,2.93,1.18,4.56,1.92a2.12,2.12,0,0,1,1.44,0s.94,0,.48.24h-.24v.24a12.83,12.83,0,0,1,1.92-.48c.2,1.1.66,1.26,0,1.92V582c1.47,0,1.11,0,1.44.72l-.48-.24v.24h-.24l.24-.48a1.72,1.72,0,0,0-1,.48h-.24c-.14-.82-.47-.76.24-1.2-.85-1.68-2.83-.6-4.32-1.2-1.16-.47-1.58-1.48-2.4-1.92-.61-.32-.7.52-.72-.24-1.22.51-2.34,1.35-3.6,1.92-.65,3.41-3,9-4.8,12.48-.37.73-.1,1.3-.48,1.92s-1.38,1.37-1.68,1.92c-.52.94-.67,3.89-1.2,4.8a27.11,27.11,0,0,0,3.6,5v.24c.53-.22.41-.48.72-1.2l.48-.24v.24h.24c-.83,1.15-.7,1.41-.48,2.64l1.2-.24c.81,1.48,3.05,2.38,3.12,3.36,1,0,2.53.15,3.12-.24H456c.4-1.6,1.11-2.88,1.2-4.8-2.15-.1-5.88-.3-7-1.44-.18.26-.15.22-.24.72-.87-.57-.72-.36-1.68,0-.25-.19-.06-.09-.48-.24.38-.74.82-.53,1.44-1,.56-1.42-1.19-3.05-2.4-4.08.21-1.19.73-1.28,1.2-2.16.32-.59-.47-1.69-1-1.68a28.73,28.73,0,0,0-.24-3.12v-.72h.48c.61,1.88.23,3.4,1.44,4.56-.07,1.81-.77,1.83-1.2,3.12.73.54,1.46,1.17,2.16,1.68a2.11,2.11,0,0,1-.24,1.2c.28.69.69,1,1,1.68h.24c1.33-.69,2.41,1,4.32,1,.78,0,1.81-.62,2.4-.48,1.42-1.73,1.54-4.74,2.64-6.72,1.35-2.42,3.24-4.72,4.8-7,1.19-1.72,1.1-3.91,1.92-5.52,2.23.23,2.27,2.25,3.12,3.84,1,1.79,2.45,3.58,3.12,5.76.93,3,.34,4.79,1.44,7.44.93,2.24,3.38,3.87,4.08,6.24,3.67,0,4.9-1.72,7.44-2.4.87-.23,3.94-.06,5-.72,1.28,0,1.61-.07,2.16-.72-.1-.16.05-1-.24-1.44-.35-.7-1.62-1-2.4-1.2.53-1.81,2.35-5.26,1.68-6.48s-2.39-1.31-3.12-2.4c-.95-1.42-.28-1.89-1.92-2.88v-.72c1.86.6,1.82,1.9,2.64,3.6.12-.23,2.9,1.29,3.12,1.92.36,1-.69,4.64-1.44,5.52.08,1.69,1.33,1.63,2.4,2.16l-.24,2.4c1.47-.18,2.07-.49,3.36-.72,1.84-.33,4.64,1,6.24-.24l.48-.24C503.18,600.76,499.53,598.87,497.76,596.16Z" transform="translate(-132.24 -178.05)"/><path class="cls-1" d="M488.16,547.92c.85-.46,1.94-3.4,1.68-4.08a3,3,0,0,1-1.44,1,7.43,7.43,0,0,1-.48,2.64C488.11,547.69,488,547.5,488.16,547.92Z" transform="translate(-132.24 -178.05)"/><path class="cls-1" d="M444.24,608.88a35.33,35.33,0,0,0-1.68-3.12c-.69-.7-.95.1-1.44-1-.3.37-.43,1.06-.72,1.44C441.47,607.57,442,608.64,444.24,608.88Z" transform="translate(-132.24 -178.05)"/><path class="cls-1" d="M440.4,607.44h-.72a11.22,11.22,0,0,1-2.4,4.8,3.41,3.41,0,0,0,.24,1c3.86.9,4.49-.63,8.4-1.2a5.62,5.62,0,0,0-1.2-2.16C443.17,608.7,441.07,609.53,440.4,607.44Z" transform="translate(-132.24 -178.05)"/><path class="cls-1" d="M507.12,533.52c1.26-.38,1.25-.83,2.4-.24.51-1.35.86-3,1.92-3.84l1-.24c.59-.66.52-1.59,1.2-2.16v-.48h.48c-.32.58.11.17-.48.48v.48l.72-.24.24-.48h-.24s0-.94.24-.48v.24h.24a9.67,9.67,0,0,0-.72-1.44h-.24c-.47-.14.48-.24.48-.24-.21-1.49-.75-.57-2.16-1-1.12.86-3.49,1.23-5.28,1.68C507,527.45,507.41,532,507.12,533.52Z" transform="translate(-132.24 -178.05)"/><path class="cls-1" d="M520.08,525.84V527c.23.48,1.24,1.22,1.44,1.68l-.24,1.2a5.73,5.73,0,0,0,1.92,2.88c.82.5,3-.35,3.6-1,.28-.47,0-6.12,0-7.68-2.21-.15-6.6.53-8.88-.24v.24h-.24C518.18,525.36,519.53,525,520.08,525.84Z" transform="translate(-132.24 -178.05)"/><path class="cls-1" d="M523,533.52v.24h-.24c-.1.68,0,.78-.24,1.2.55,1.65,2.21,2.51,3.84,3.12v-.24c.21-.32.88-4.1.24-5C525.76,533.63,524,533.62,523,533.52Z" transform="translate(-132.24 -178.05)"/><path class="cls-1" d="M508.32,581.52v-.72c4.53.07,2.6-3.83,4.56-5.52V575c-.41.15-.23.05-.48.24H511V575c-.47-.36-.75-1.07-1.2-1.44-.88-.73-1.53-.19-2.4-1.2h-.48c.11,2.6,0,5.65,0,9.6A3.68,3.68,0,0,0,508.32,581.52Z" transform="translate(-132.24 -178.05)"/><path class="cls-1" d="M553.44,577.68l-.24,1c-.52-.22-.35-.21-.72-.48-.18.21-.3.27-.48.48-1.39.7-.62,2.35-1.2,3.12a2.47,2.47,0,0,1-1.44,1.44c.35.6-.06.28.72.48-.26.18-.22.15-.72.24.43.66.36.38.24,1.2,1.37,0,4.45-1.63,5.28-.72h.24c-.25-1.75-1.18-4.59-1.2-6.72Z" transform="translate(-132.24 -178.05)"/><path class="cls-1" d="M549.6,586.56c-.61-.3-.52-.25-.72-1s.23-.38,0-1c-.21-.24-.23.13-1,.24a6.65,6.65,0,0,1-1.92,3.84,2.68,2.68,0,0,1-1.2.48V589h-.24a39.56,39.56,0,0,1,2.16-3.84l1-.24c.49-.63.18-1.62.72-2.16.82-.82,1.47-.34,1.92-1.68a3.48,3.48,0,0,0,.24-1.92v-.48a11.11,11.11,0,0,1-4.8,1l-2.16-.24c-.19.06-.59.66-.72.72-2.33,1-4.51-.09-6.72.24-2.52.38-4.37.46-7.44,1a2.66,2.66,0,0,0-.72-.48c0-5.27,1.51-10.27.24-15.36-1.11-4.45-2.29-9.14-2.16-14.16.09-3.53.84-9.76,0-12.48-.12-.61-2.75-1.21-3.6-2.4s-.37-2-.24-3.36c-.23-.43-1-.57-1.2-1-.52-1,.3-1.82,0-2.64-.4-1.08-1.55-2-1.44-3.12a19.19,19.19,0,0,1-2.4-1.2c-.16-.6-.07-.13,0-.72H517v-.24h-1.68c.21.64.09,1.83.24,2.16-.45,1.3-1.73,1.44-2.4,2.4,0,0-.7,2.83-1,1.92h-.24c0,1.17.61.93,1,1.92s-.63,2.57-.72,3.12c-.16,1,.63,1.6.72,2.16s-.4.53-.24,1.44v.24h.48a4.3,4.3,0,0,0,.24,3.6c.13.31.09.17.24.24.51.32.94,1.89,1.2,2.4,2.29,0,2,.25,4.32.24l-.24,1.44h-.48a3.1,3.1,0,0,1-.24-1c-1,.15-2.23-.16-2.88.24a6.9,6.9,0,0,1-1.92-1.68v-.24h-.24c-.55,1.54.08,4.36-.72,5.52-.28.53-.35.36-.72.72h-.48c.27-.77,1-1,1.2-1.68.33-1.15-.73-1.68-.48-3.12.11-.64.84-1.28,1-1.68.36-1.19-.86-1.55-.24-2.64,0,0,0-.94-.24-.48v.24h-.24c.09-1.11.59-1.6.48-2.16h-.48c-.6-1.45-.21-5.93.24-6.72a7.91,7.91,0,0,1-1-1c-.68.87-.8,2.9-1,4.32-.49.1-.46.06-.72.24-2.19.86-2.8,6.45-2.16,9.6.38,1.86-.06,3.93,0,6.72.1,4.35.15,10-.48,13.68-.35,2,.23,3.85-.24,4.56.6,1.6,3.41,2.41,4.56,3.6a7.93,7.93,0,0,0,3.36-2.4h1a1.37,1.37,0,0,1-1.68,1,10.72,10.72,0,0,1-.72,2.64V576h-.24l.24-.48c-1.64,1-1,4.9-2.4,6-.38.3-.13-.33-.48,0a4.82,4.82,0,0,0-3.36,1.44c-.31.53-.58,7.89.24,9.12.15.41.05.23.24.48a1.31,1.31,0,0,1,.72-1c.8-.62,2.78.24,3.36,0,2.7,0,2.18-.83,3.36-2.16a21.49,21.49,0,0,1,2.64-1.68V588h.24c-.27.93-3.78,3.43-4.56,4.32a13.5,13.5,0,0,1-4.56-.48,3.51,3.51,0,0,1-1.44,1.44,2,2,0,0,0,1,1.44c-.26.18-.22.15-.72.24.29,3.13,1.26,4.88,1.2,9.12,4.16,0,10.25.62,14.4-.72,1.86-.6,4-2.09,5.76-2.88s6.52-.83,8.88-1a3.41,3.41,0,0,0-.24-1,5.92,5.92,0,0,0-4.56-.24l-.48-.72c-.22-.22,1.47-3.72,1.92-4.32-.58-1.65-4.46-7.13-6-7.68,0-.72.18-.67,0-1v-.24a20.88,20.88,0,0,1,4.08,4.32c.88,1.37,1,2.54,2.4,3.36a16.68,16.68,0,0,1-1.68,5c3.18,1,3.2,0,5.52,2.16.88.54,3.85-.58,5.28-1l2.64-.24c2.36-.76,3.95-1.5,7.44-1.44.34-2.29,1.46-10.06.48-11.28C554.06,584.94,550.13,585.84,549.6,586.56Zm-28.8-23c-1.24.38-2,1.79-2.4,2.88v1.68c-.37.72-.75.13-1.2,1a14.88,14.88,0,0,1,.24,2.64c-.82.2-.61.12-1,.72H516c.26-1,.88-.95,1.2-1.68-.35-1.11-1-1.13-1.2-2.4l1.68-.24a7,7,0,0,1,2.16-5v-.24h.24c.33.38.15.28.72.48Zm.72-12v.24h-.24v-.24a18,18,0,0,1-1.2-1.68c-.19-.45-.91-.63-1.68-1v-1h.72c.24,1.12,1.63,2,2.4,2.64C521.55,551.28,521.7,551.23,521.52,551.52Z" transform="translate(-132.24 -178.05)"/><path class="cls-1" d="M560.4,579.36c.28,2,1,4.45.24,6v1c1-.69,1.48-1.91,2.4-2.64s1.9-.72,2.64-1.68c.32-.25-.1-.37-.24-1a17.77,17.77,0,0,0,2.88-1.44,4.45,4.45,0,0,0,2.4,0c.63-.25.86-1.19,1.44-1.44,1.45-.64,2.52.17,3.84-.72.82-.34.5-1,.24-1.92.7-.44.24-.32,1.2-.24a1.47,1.47,0,0,0-.48-.48c.27-.37.26-.19.48-.72.92.32,1.87,0,2.64.48h.48a43,43,0,0,0,.24-6.48,8.26,8.26,0,0,1-.24-2.64c.47-2.14,1.06-6.27.24-8.16-.48,0-.06-.23-.48,0-1-.6-2.8-2.76-2.64-4.56-1.26-.56-2.5-.37-3.36-.72,0,0-.94,0-.48-.24h.24v-.24h-.72a8,8,0,0,0-1.68-3.12v-.48c1.18.81,1.53,2.63,2.64,3.36.73.48,2.57.35,2.88.48,1.47,1,1.14,2.46,1.68,3.36s1.58,1.24,2.16,1.92h.24c0-4.88,0-9.94,0-15.36,0-1.69.49-5-.24-6.24-.28-.77-.56,0-1-.72V533a11.74,11.74,0,0,0-2.88-2.16c-.2-.65-.37.2-.48.48-.58-.32-.17.11-.48-.48h-.48c0,1,.17,1.78-.48,2.16a8.59,8.59,0,0,1-3.6-.24c-.9.48-1.11,1.77-1.92,2.4v.48c-.34-.47-.11-.42-.48-1a5.68,5.68,0,0,0,1.68-2.4,7.67,7.67,0,0,1,3.6.48c.29-.49.15-.46.72-.72a6.68,6.68,0,0,0-.48-1.2c.14-.55.66-.47,1-1.2.64-1.54,0-2.74,1.44-2.88v-.72a13.43,13.43,0,0,1,2.88,0h.48V522c-3.56.24-8,1.51-11.76,1l-.24.48c-.54.87-.1,4,.24,4.56-.33,2.18-2.73,1.6-2.64,3.6-.52-.22-.35-.21-.72-.48l-.24.48c-.23.36,0,1-.24,1.44-.65,1.38-2.28,1-3.36,1.92h-.48a1.72,1.72,0,0,1,.48-1c.89-.55,1.78-.14,2.4-1h.24c.42-.19-.22-1.15.24-1.92.17-.28.73-.39,1-.72-1.53-.68-5.1-2.06-6-3.12H559c.65,6.2.74,13.93,1.44,18.72.15,1-.62,2.3,0,3.12.45.6.52-.39,1.2,0s.69,1.54,1.2,1.92H563a6.57,6.57,0,0,1,2.4.72l.24,1.2s.59-.35,1-.24a9.46,9.46,0,0,1,1.92.72c1.17-.06,2.91-.26,3.36.48.14.23,0,.46,0,1.2h-.24a3.1,3.1,0,0,1-.24-1,6.48,6.48,0,0,1-2.64-.24h-.24c.69,2.54.47,5.07,2.4,6.24v.72c-1.15-.3-2.84-3.52-2.4-4.32,0-2.44-1.58-2.58-3.36-3.12-.12-.6,0-.2,0-1a22,22,0,0,1-3.12-1.2c-.58-.4-.38-.88-1.2-1.2v-.24h-.24v.24c-.74.41,0,1.19-.24,2.16a100.18,100.18,0,0,0-.48,11c-.1,4,1.6,2.91,3.84,4.32.64.41.54,1.24,1,1.92.75,1.2,3.22,1.74,4.56,1.92v.24h.24v.48a10.93,10.93,0,0,1-4.8-1.68c-1.11-.79-.67-2.08-1.92-2.64-1.54-.69-1.89.55-2.4-1.2h-.48c0,3.93.34,6.29.24,8.64C560.09,577,561,578.15,560.4,579.36Z" transform="translate(-132.24 -178.05)"/><path class="cls-1" d="M561.84,527.76H563c.49.27.5,1.39,1,1.68,1.09.7.94-.71,1.92.72a7.83,7.83,0,0,1,2.4-1.44,6.14,6.14,0,0,0-.72-2.16,4.35,4.35,0,0,0,.24-2.88l-.24-.72c-1.66.17-2.37.47-3.84-.24-.85.88-2.44-.17-3.6.48-.81.47-.64,1.71-1.2,2.4C559.28,526.34,561.15,527.48,561.84,527.76Z" transform="translate(-132.24 -178.05)"/><path class="cls-1" d="M580.08,526.32v.48a7.07,7.07,0,0,0-2.4.48h-.48c-.15.41-.05.23-.24.48.06,3.83,3.24,3,3.84,6a5.79,5.79,0,0,0-.24-3.84C580.61,528.61,580.77,526.93,580.08,526.32Z" transform="translate(-132.24 -178.05)"/><path class="cls-1" d="M581.28,586.08V583.2c-.84.25-.83.26-1.44.48-.36-.64-.39-.74-1.2-1-1.42,1.68-3.4.92-4.56,1.68-.85.32-.57.47-1,1.2a7.17,7.17,0,0,1-3.84-.72c-1.38,1.79-2,.46-3.84,1.68s-2.19,4.48-4.8,4.32c-.15,1.22,0,2.32-.24,3.36,6.18-.42,13.11-2.45,18.72-4.08.82-.24,1,.22,1.44,0l.72-.24C581.31,588.57,581.66,586.71,581.28,586.08Z" transform="translate(-132.24 -178.05)"/></svg>